<svg width="359" height="396" viewBox="0 0 359 396" fill="none" xmlns="http://www.w3.org/2000/svg">
<path d="M161.145 0.31918C159.278 0.71918 153.678 1.91918 148.478 3.11918C114.878 10.9858 86.2114 33.6525 70.478 64.8525C59.1447 87.3858 56.7447 103.919 57.4114 152.453L57.8114 185.786L62.478 194.986C67.9447 205.653 78.078 214.719 87.278 217.119C92.7447 218.586 93.278 219.253 95.278 225.519C100.478 241.652 115.411 261.386 128.611 269.786C131.811 271.786 134.478 274.319 134.478 275.119C134.478 276.052 134.211 276.852 133.945 276.852C130.078 276.852 66.078 290.852 60.7447 292.852C43.1447 299.386 27.1447 314.052 19.278 330.586C14.878 340.052 -1.25529 393.652 0.0780425 394.852C0.478043 395.252 81.1447 395.386 179.411 395.252L358.078 394.852L349.811 365.919C345.278 350.052 339.811 333.519 337.678 329.252C330.078 313.919 309.145 296.319 292.611 291.252C289.278 290.319 224.345 276.852 222.878 276.852C220.745 276.852 223.945 273.386 231.278 268.052C244.745 258.186 254.211 245.386 261.145 227.653C264.345 219.653 264.745 219.119 271.411 216.586C280.745 213.119 290.745 203.919 295.411 194.453L299.145 186.853V126.186C299.145 66.9858 299.011 65.3858 296.345 59.3858C290.478 46.8525 279.011 37.3858 265.811 34.0525C261.545 32.9858 255.411 29.6525 248.611 24.5858C227.145 8.58585 205.678 0.985847 179.811 0.185847C171.411 -0.0808195 163.011 -0.0808195 161.145 0.31918ZM201.145 25.3858C212.211 28.4525 226.211 35.9192 240.078 46.0525C250.078 53.3858 253.678 55.2525 258.611 55.7858C265.945 56.5858 270.611 59.7858 274.345 66.3192C277.011 70.8525 277.145 73.2525 277.145 103.919V136.719L272.211 134.453C267.811 132.453 260.211 132.053 213.678 131.519L160.211 130.853L155.411 127.119C150.078 122.986 147.811 119.519 146.478 113.519L145.678 109.519L134.878 109.119L123.945 108.719L122.478 114.053C119.678 124.719 110.745 131.519 99.8114 131.519C96.878 131.519 91.4114 132.719 87.5447 134.186C83.678 135.653 80.2114 136.853 79.9447 136.853C79.678 136.853 79.8114 128.853 80.2114 119.119C81.0114 98.7192 83.1447 90.0525 90.878 74.1858C95.278 64.9858 98.6114 60.5858 108.478 50.7192C118.745 40.3192 122.345 37.6525 133.145 32.4525C150.078 24.3192 160.611 22.0525 179.145 22.8525C187.278 23.1192 197.145 24.3192 201.145 25.3858ZM139.545 143.519C142.211 145.653 147.545 148.719 151.145 150.453C157.545 153.386 159.278 153.519 201.678 153.919L245.545 154.453L244.745 181.919C244.078 211.119 243.145 215.653 235.811 230.186C231.678 238.186 217.945 251.386 209.011 255.786C193.678 263.386 176.345 265.519 162.345 261.386C138.611 254.319 122.345 238.186 115.678 215.519C113.545 208.319 113.145 202.453 113.145 179.519V152.186L118.878 149.786C122.078 148.586 126.745 145.653 129.278 143.519C131.811 141.386 133.945 139.653 134.211 139.519C134.478 139.519 136.878 141.253 139.545 143.519ZM90.478 175.786L90.3447 194.853L85.8114 189.919C78.078 181.653 77.9447 169.919 85.4114 161.519C87.5447 158.986 89.678 156.853 89.9447 156.853C90.2114 156.853 90.478 165.386 90.478 175.786ZM275.278 166.453C279.411 174.319 276.345 188.053 269.411 192.586L266.478 194.453V175.386V156.453L269.945 159.653C271.811 161.386 274.211 164.453 275.278 166.453ZM179.145 285.519C182.878 285.519 189.278 284.986 193.545 284.452L201.278 283.252L200.345 288.452C198.211 300.586 188.611 308.319 176.878 307.252C166.478 306.186 157.145 297.119 157.145 287.919V283.519L164.878 284.452C169.011 285.119 175.545 285.519 179.145 285.519Z" fill="#6A9DA0"/>
</svg>
